<svg xmlns="http://www.w3.org/2000/svg" xmlns:xlink="http://www.w3.org/1999/xlink" version="1.1" width="256" height="256" viewBox="0 0 256 256" xml:space="preserve">
<g style="stroke: none; stroke-width: 0; stroke-dasharray: none; stroke-linecap: butt; stroke-linejoin: miter; stroke-miterlimit: 10; fill: none; fill-rule: nonzero; opacity: 1;" transform="translate(1.4065934065934016 1.4065934065934016) scale(2.81 2.81)">
	<path d="M 90 14.762 c 0 -0.004 -0.001 -0.008 -0.001 -0.011 c -0.001 -0.163 -0.017 -0.326 -0.049 -0.487 c -0.017 -0.084 -0.049 -0.161 -0.074 -0.242 c -0.023 -0.075 -0.039 -0.152 -0.07 -0.225 c -0.048 -0.114 -0.11 -0.219 -0.174 -0.324 c -0.021 -0.035 -0.035 -0.072 -0.058 -0.106 c -0.093 -0.137 -0.199 -0.264 -0.316 -0.381 c -0.002 -0.002 -0.003 -0.005 -0.006 -0.007 c -0.031 -0.031 -0.068 -0.052 -0.1 -0.081 c -0.088 -0.078 -0.177 -0.156 -0.276 -0.221 c -0.063 -0.042 -0.13 -0.071 -0.196 -0.106 c -0.078 -0.042 -0.153 -0.088 -0.236 -0.121 c -0.075 -0.031 -0.153 -0.048 -0.23 -0.071 c -0.079 -0.024 -0.156 -0.052 -0.238 -0.068 c -0.095 -0.018 -0.191 -0.022 -0.287 -0.029 c -0.064 -0.005 -0.125 -0.019 -0.191 -0.019 h -85 c -0.047 0 -0.091 0.011 -0.137 0.014 c -0.115 0.006 -0.231 0.013 -0.344 0.035 c -0.072 0.014 -0.139 0.04 -0.209 0.06 c -0.087 0.025 -0.174 0.046 -0.258 0.08 c -0.076 0.031 -0.144 0.073 -0.216 0.112 c -0.072 0.038 -0.146 0.071 -0.214 0.116 c -0.091 0.06 -0.172 0.133 -0.255 0.205 c -0.039 0.034 -0.083 0.06 -0.12 0.096 c -0.003 0.003 -0.004 0.005 -0.007 0.008 c -0.116 0.115 -0.222 0.241 -0.314 0.378 c -0.041 0.061 -0.069 0.128 -0.104 0.192 c -0.044 0.079 -0.092 0.154 -0.127 0.237 c -0.044 0.106 -0.072 0.216 -0.101 0.326 c -0.013 0.048 -0.033 0.092 -0.043 0.14 c -0.033 0.162 -0.049 0.327 -0.049 0.491 C 0.001 14.756 0 14.759 0 14.762 v 60.475 c 0 0.035 0.009 0.068 0.01 0.102 c 0.004 0.088 0.013 0.174 0.026 0.261 c 0.012 0.079 0.024 0.156 0.043 0.233 c 0.019 0.078 0.045 0.153 0.071 0.229 c 0.027 0.078 0.055 0.155 0.09 0.229 c 0.033 0.071 0.072 0.138 0.112 0.206 c 0.043 0.073 0.086 0.144 0.136 0.212 c 0.044 0.061 0.093 0.117 0.144 0.174 c 0.06 0.068 0.122 0.134 0.19 0.195 c 0.025 0.023 0.043 0.05 0.069 0.071 c 0.036 0.03 0.076 0.051 0.113 0.079 c 0.058 0.044 0.116 0.086 0.177 0.124 c 0.075 0.047 0.153 0.087 0.231 0.125 c 0.058 0.029 0.116 0.058 0.177 0.082 c 0.094 0.037 0.189 0.064 0.285 0.088 c 0.053 0.014 0.104 0.031 0.159 0.042 c 0.154 0.029 0.31 0.047 0.466 0.047 c 0 0 0 0 0.001 0 s 0 0 0.001 0 h 85 c 0 0 0 0 0 0 s 0 0 0 0 c 0.156 0 0.312 -0.018 0.467 -0.047 c 0.054 -0.01 0.106 -0.028 0.159 -0.042 c 0.096 -0.025 0.192 -0.052 0.285 -0.089 c 0.06 -0.024 0.117 -0.052 0.175 -0.08 c 0.08 -0.039 0.158 -0.08 0.235 -0.127 c 0.06 -0.038 0.116 -0.078 0.173 -0.121 c 0.038 -0.028 0.079 -0.05 0.116 -0.081 c 0.027 -0.022 0.046 -0.05 0.071 -0.073 c 0.066 -0.06 0.126 -0.124 0.185 -0.19 c 0.052 -0.059 0.103 -0.117 0.148 -0.18 c 0.048 -0.066 0.091 -0.135 0.132 -0.206 c 0.041 -0.07 0.081 -0.139 0.115 -0.211 c 0.034 -0.073 0.061 -0.148 0.088 -0.225 c 0.027 -0.077 0.053 -0.154 0.072 -0.233 c 0.019 -0.076 0.031 -0.153 0.042 -0.231 c 0.013 -0.087 0.023 -0.174 0.026 -0.262 c 0.001 -0.035 0.01 -0.068 0.01 -0.103 V 14.762 z M 50.184 49.126 c -1.378 1.4 -3.219 2.172 -5.183 2.172 c -1.965 0 -3.807 -0.771 -5.185 -2.172 L 8.467 17.262 h 73.066 L 50.184 49.126 z M 26.542 42.763 L 5 68.38 V 20.868 L 26.542 42.763 z M 30.064 46.343 l 6.187 6.288 c 2.326 2.364 5.433 3.666 8.75 3.666 c 3.315 0 6.422 -1.302 8.747 -3.666 l 6.188 -6.289 l 22.195 26.395 H 7.869 L 30.064 46.343 z M 63.458 42.763 L 85 20.868 V 68.38 L 63.458 42.763 z" style="stroke: none; stroke-width: 1; stroke-dasharray: none; stroke-linecap: butt; stroke-linejoin: miter; stroke-miterlimit: 10; fill: rgb(127,127,127); fill-rule: nonzero; opacity: 1;" transform=" matrix(1 0 0 1 0 0) " stroke-linecap="round"/>
</g>
</svg>